<svg viewBox="0 0 32 32" xmlns="http://www.w3.org/2000/svg">
    <path d="M20.427 1.333c.17 1.455-.443 2.889-1.34 3.943-.937 1.037-2.434 1.83-3.893 1.729-.191-1.4.548-2.89 1.375-3.797.936-1.031 2.56-1.82 3.858-1.875zm5.534 10.156c-.164.092-2.86 1.604-2.831 4.688.034 3.725 3.469 4.956 3.51 4.97-.02.086-.537 1.777-1.826 3.493-1.076 1.51-2.203 2.988-3.993 3.015-.851.018-1.426-.212-2.025-.451-.624-.25-1.275-.51-2.294-.51-1.08 0-1.76.268-2.415.527-.567.224-1.116.441-1.89.471-1.704.06-3.007-1.613-4.122-3.11-2.228-3.058-3.963-8.616-1.637-12.399a6.457 6.457 0 015.38-3.081c.966-.019 1.894.332 2.708.639.622.234 1.177.444 1.631.444.4 0 .94-.201 1.568-.436.99-.37 2.203-.821 3.439-.7.845.024 3.249.314 4.8 2.438l-.003.002z"></path>
</svg>
