<svg viewBox="0 0 50 48" fill="none" xmlns="http://www.w3.org/2000/svg">
    <path d="M21.5762 8.53738C22.8172 4.71806 23.4377 2.80841 24.5026 2.53497C24.8289 2.45119 25.1711 2.45119 25.4974 2.53497C26.5623 2.80841 27.1828 4.71806 28.4238 8.53738L30.4781 14.86C30.8234 15.9226 30.996 16.4539 31.3704 16.8055C31.4927 16.9203 31.6289 17.0193 31.776 17.1001C32.226 17.3475 32.7846 17.3475 33.9019 17.3475H40.5499C44.5658 17.3475 46.5737 17.3475 47.1629 18.2759C47.3434 18.5603 47.4491 18.8857 47.4703 19.2219C47.5393 20.3193 45.9149 21.4995 42.666 23.86L37.2876 27.7676C36.3837 28.4243 35.9317 28.7527 35.7131 29.2173C35.6417 29.3691 35.5896 29.5293 35.5582 29.6941C35.4619 30.1985 35.6346 30.7299 35.9798 31.7925L38.0342 38.1151C39.2752 41.9344 39.8956 43.8441 39.1948 44.6913C38.9801 44.9508 38.7032 45.1519 38.39 45.276C37.3677 45.6807 35.7433 44.5005 32.4944 42.14L27.116 38.2324C26.2121 37.5757 25.7601 37.2473 25.2507 37.183C25.0842 37.1619 24.9158 37.1619 24.7493 37.183C24.2399 37.2473 23.7879 37.5757 22.884 38.2324L17.5056 42.14C14.2567 44.5005 12.6323 45.6807 11.61 45.276C11.2968 45.1519 11.0199 44.9508 10.8052 44.6913C10.1044 43.8441 10.7248 41.9344 11.9658 38.1151L14.0202 31.7925C14.3654 30.7299 14.5381 30.1985 14.4418 29.6941C14.4104 29.5293 14.3584 29.3691 14.2869 29.2173C14.0683 28.7527 13.6163 28.4243 12.7124 27.7676L7.33405 23.86C4.08514 21.4995 2.46069 20.3193 2.52973 19.2219C2.55088 18.8857 2.65662 18.5603 2.83713 18.2759C3.42627 17.3475 5.43421 17.3475 9.45007 17.3475H16.0981C17.2154 17.3475 17.774 17.3475 18.224 17.1001C18.371 17.0193 18.5073 16.9203 18.6296 16.8055C19.004 16.4539 19.1766 15.9226 19.5219 14.86L21.5762 8.53738Z"
          fill="#FEC601"/>
    <path d="M36.6179 29.6431L35.7131 29.2173L36.6179 29.6431C36.647 29.5813 36.706 29.4889 36.9029 29.3162C37.1136 29.1313 37.4086 28.9157 37.8754 28.5766L43.2537 24.669L43.3084 24.6293C44.8866 23.4827 46.1398 22.5722 46.9834 21.8087C47.4125 21.4203 47.7849 21.0272 48.0477 20.617C48.3165 20.1973 48.5028 19.7082 48.4683 19.1592C48.4366 18.6548 48.278 18.1667 48.0072 17.74L47.1629 18.2759L48.0072 17.74C47.7124 17.2755 47.2742 16.9894 46.81 16.8078C46.3563 16.6304 45.824 16.5313 45.2485 16.4693C44.1172 16.3475 42.5683 16.3475 40.6175 16.3475H40.5499H33.9019C33.325 16.3475 32.9596 16.3465 32.6805 16.3208C32.4196 16.2968 32.3176 16.2567 32.2577 16.2238L31.776 17.1001L32.2577 16.2238C32.1842 16.1834 32.1161 16.1339 32.0549 16.0765L31.3704 16.8055L32.0549 16.0765C32.0051 16.0297 31.9355 15.9451 31.8321 15.7044C31.7213 15.4469 31.6075 15.0997 31.4292 14.551L29.3749 8.22836L29.354 8.16405C28.7512 6.30877 28.2725 4.83565 27.8071 3.7974C27.5703 3.26922 27.3115 2.79356 27.0026 2.41695C26.6865 2.03155 26.279 1.70321 25.7461 1.56639C25.2566 1.44072 24.7434 1.44072 24.2539 1.56639C23.721 1.70321 23.3135 2.03155 22.9974 2.41695C22.6885 2.79356 22.4297 3.26922 22.1929 3.7974C21.7275 4.83565 21.2488 6.30877 20.646 8.16405L20.6251 8.22836L18.5708 14.551C18.3925 15.0997 18.2787 15.4469 18.1679 15.7044C18.0645 15.9451 17.9949 16.0297 17.9451 16.0765C17.8839 16.1339 17.8158 16.1834 17.7423 16.2238L18.224 17.1001L17.7423 16.2238C17.6824 16.2567 17.5804 16.2968 17.3195 16.3208C17.0404 16.3465 16.675 16.3475 16.0981 16.3475H9.45007H9.38251C7.43173 16.3475 5.88278 16.3475 4.75151 16.4693C4.17601 16.5313 3.64366 16.6304 3.19002 16.8078C2.72581 16.9894 2.28759 17.2755 1.9928 17.74C1.72204 18.1667 1.56343 18.6548 1.5317 19.1592C1.49716 19.7082 1.68349 20.1973 1.95234 20.617C2.21507 21.0272 2.58747 21.4203 3.01663 21.8087C3.86023 22.5722 5.11333 23.4826 6.69151 24.6292L6.74626 24.669L12.1246 28.5766C12.5914 28.9157 12.8864 29.1313 13.0971 29.3162C13.294 29.4889 13.353 29.5813 13.3821 29.6431C13.4178 29.719 13.4438 29.7991 13.4595 29.8815C13.4724 29.9486 13.4789 30.058 13.4212 30.3135C13.3594 30.587 13.2474 30.9347 13.0691 31.4835L11.0148 37.8061L10.9939 37.8704C10.391 39.7257 9.91237 41.1988 9.67865 42.3123C9.55975 42.8788 9.48956 43.4157 9.51809 43.902C9.54729 44.3996 9.68401 44.9048 10.0347 45.3287C10.3568 45.718 10.772 46.0197 11.2419 46.2057C11.7534 46.4083 12.2761 46.3822 12.7584 46.2562C13.2296 46.1331 13.7186 45.9004 14.2206 45.6122C15.2074 45.0459 16.4606 44.1354 18.0388 42.9887L18.0934 42.949L23.4718 39.0415C23.9385 38.7023 24.2347 38.4884 24.4756 38.3451C24.7008 38.2112 24.8069 38.1836 24.8747 38.1751C24.9579 38.1646 25.0421 38.1646 25.1253 38.1751C25.1931 38.1836 25.2992 38.2112 25.5244 38.3451C25.7653 38.4884 26.0615 38.7023 26.5282 39.0414L31.9066 42.949L31.9613 42.9888C33.5395 44.1354 34.7926 45.0459 35.7794 45.6122C36.2814 45.9004 36.7704 46.1331 37.2416 46.2562C37.7239 46.3822 38.2466 46.4083 38.7581 46.2057C39.228 46.0197 39.6432 45.718 39.9653 45.3287C40.316 44.9048 40.4527 44.3996 40.4819 43.902C40.5104 43.4157 40.4402 42.8788 40.3213 42.3123C40.0876 41.1988 39.609 39.7257 39.0062 37.8705L38.9852 37.8061L36.9309 31.4835C36.7526 30.9347 36.6406 30.587 36.5788 30.3135C36.5211 30.058 36.5276 29.9486 36.5405 29.8815C36.5562 29.7991 36.5822 29.719 36.6179 29.6431Z"
          stroke="#FEC601" stroke-opacity="0.3" stroke-width="2"/>
</svg>
